<svg id="Layer_1" data-name="Layer 1" xmlns="http://www.w3.org/2000/svg" viewBox="0 0 399.85 477.67"><defs><style>.cls-1{fill:#e5a812;fill-rule:evenodd;}</style></defs><path class="cls-1" d="M331.79,372.14c6.23-1,11,1.6,13.25,6.12,5.61,11.27-7.08,32.13-23,34.44-13.91,2-17.61-11.63-12.27-22.55,4.14-8.49,11.75-16.3,22-18ZM86.38,265c7.62-32.36,24-75.42,35.53-106.49,13.1-35.4,18.61-58.32,26.3-95.06,16.29,12.11,45,26.23,63.64,35,15,7.09,30.06,13.92,45.19,20.62,30.34,13.45,72.19,30.6,98.52,49.36,36.93,26.33,66.82,60.47,74.36,106.69,8.71,53.36-7.48,104.8-41.71,145.19-25.26,29.8-65.68,46.32-104.67,41.71-37.17-4.39-68-26.62-84.67-58.64-19.42-37.22-16.56-100.08-2-136.74-8.46,81.77,11.73,150.06,69.83,168.76C307.31,448.53,366,432,370,382.94c.71-20.82-12.06-36.65-26.69-48.84-36.66-30.51-66.94-50.43-90-98.32-13.13-27.26-19.42-51.85-23.15-77.35-44.2,50.76-62.4,132.66-64.77,164.64-6.12,82.73,38,164.9,134.42,163.33,38.88-.64,75.84-17.91,102.92-46.6A199,199,0,0,0,442.33,378c15.31-38.09,17.7-82.93,7.14-122.42-8.16-30.55-22.05-51.95-40.31-71.52-30.64-32.85-58.6-48.59-97.64-66.57-34.1-15.69-69.18-30.24-102.69-46.77-19.39-9.56-65.21-37-81.31-50.87.43,14.9-3.8,44.26-6.88,60.32a332.11,332.11,0,0,1-9.6,37.45c-13.67,43.49-38.4,96.3-47.69,141-9.35,45-11.53,84.86,4.57,129.68,15.06,41.91,44.37,75.22,86.71,99.78,3,1.73,14.37,8.53,17.82,9.19,6.39,1.21,11-2.3,13-8.14,2.5-7.32-.16-10.95-6.21-14.56-11.26-6.73-20.26-11.5-31.39-19.06-20.18-14.83-37.26-33.63-49.13-55.71C76.64,358.85,75.93,309.47,86.38,265Z" transform="translate(-56.07 -19.87)"/></svg>