<svg id="Layer_1" data-name="Layer 1" xmlns="http://www.w3.org/2000/svg" viewBox="0 0 483 160.75"><defs><style>.cls-1{fill:#e5a812;}.cls-1,.cls-2{fill-rule:evenodd;}.cls-2{fill:#000002;}</style></defs><path class="cls-1" d="M90.68,249.2A3.4,3.4,0,0,1,94.51,251c1.62,3.26-2,9.28-6.64,10-4,.59-5.09-3.36-3.55-6.52a9,9,0,0,1,6.36-5.2ZM19.76,218.25c2.2-9.36,6.94-21.8,10.27-30.78,3.78-10.23,5.38-16.85,7.6-27.47,4.71,3.5,13,7.58,18.39,10.12,4.32,2,8.69,4,13.06,6C77.85,180,90,184.92,97.55,190.34c10.68,7.61,19.31,17.48,21.49,30.84,2.52,15.42-2.16,30.28-12.05,42a35,35,0,0,1-30.25,12.05,31.59,31.59,0,0,1-24.47-16.95c-5.61-10.75-4.79-28.92-.58-39.52-2.44,23.64,3.39,43.37,20.18,48.78,11.74,3.78,28.7-1,29.87-15.18.2-6-3.49-10.59-7.71-14.11-10.6-8.82-19.35-14.58-26-28.42a74.07,74.07,0,0,1-6.68-22.35c-12.78,14.67-18,38.34-18.72,47.58-1.77,23.91,11,47.66,38.84,47.2a42,42,0,0,0,29.75-13.47,56.13,56.13,0,0,0,13.5-53.23,46.55,46.55,0,0,0-11.65-20.67c-8.86-9.49-16.94-14-28.22-19.24-9.86-4.54-20-8.74-29.68-13.52-5.61-2.76-18.85-10.69-23.5-14.7.12,4.31-1.1,12.79-2,17.44a98.62,98.62,0,0,1-2.77,10.82c-3.95,12.57-11.1,27.83-13.79,40.75s-3.33,24.53,1.33,37.48c4.35,12.11,12.82,21.74,25,28.84.87.5,4.16,2.47,5.15,2.65A3.16,3.16,0,0,0,48.38,283c.72-2.11-.05-3.16-1.79-4.2-3.26-1.95-5.86-3.33-9.08-5.51a48.87,48.87,0,0,1-14.2-16.1C16.94,245.36,16.74,231.09,19.76,218.25Z" transform="translate(-11 -147.39)"/><path class="cls-1" d="M163.23,200.87a25.46,25.46,0,0,1,8.85-5.86,24,24,0,0,1,9.71-1.62,25.29,25.29,0,0,1,9.44,2.28,24.31,24.31,0,0,1,8,5.86,29.27,29.27,0,0,1,5.59,9.17A32.78,32.78,0,0,1,207,222.8a30.45,30.45,0,0,1-2.28,11.93,29.88,29.88,0,0,1-6.08,9.34,26.76,26.76,0,0,1-8.74,6,23.08,23.08,0,0,1-10.14,1.9,16.48,16.48,0,0,1-8.58-2.33,13.28,13.28,0,0,1-4.55-4.89,12.27,12.27,0,0,1-1.41-5.64,9.37,9.37,0,0,1,1-4.61,9.69,9.69,0,0,0,2.34,2.22,10.57,10.57,0,0,0,2.93,1.41,19.16,19.16,0,0,0,3.25.71,25.88,25.88,0,0,0,3.2.21,13.84,13.84,0,0,0,8.36-2.44,15.44,15.44,0,0,0,5-6.07,18.56,18.56,0,0,0,1.69-7.93,19.28,19.28,0,0,0-1.63-7.92,15.09,15.09,0,0,0-5-6.08,14.12,14.12,0,0,0-8.47-2.44,12,12,0,0,0-7,2,14.51,14.51,0,0,0-4.51,5,23.2,23.2,0,0,0-2.38,6.89,41.67,41.67,0,0,0-.71,7.6v44.38h-14v-66a10.36,10.36,0,0,1,4.24-8.62,12.51,12.51,0,0,1,4.44-2.12,18.47,18.47,0,0,1,5.32-.54v6.07Zm66.63-6.07v26.91c0,1.3,0,2.7.06,4.18a28.12,28.12,0,0,0,.43,4.34,14.62,14.62,0,0,0,1.3,4,8.9,8.9,0,0,0,5.54,4.45,11.93,11.93,0,0,0,3.2.43,11.46,11.46,0,0,0,3.15-.43,10,10,0,0,0,2.82-1.3,7.83,7.83,0,0,0,2.77-3,14.1,14.1,0,0,0,1.3-3.85,23.52,23.52,0,0,0,.38-4.23V206q-.1-5.86,3.8-8.74t10.2-2.66v23.88a93.85,93.85,0,0,1-.49,12.31,30,30,0,0,1-1.79,7.76q-3.15,7.28-8.9,10.42a27.57,27.57,0,0,1-13.46,3.15,26.7,26.7,0,0,1-14.32-3.69q-6-3.69-8.57-11.83a36.94,36.94,0,0,1-1.2-6.78,93.57,93.57,0,0,1-.43-9.39V194.8Zm60,6.4a9,9,0,0,1,2.61-3.36,16.42,16.42,0,0,1,3.91-2.34,28.12,28.12,0,0,1,4.44-1.46,24.07,24.07,0,0,1,4.24-.65,20.38,20.38,0,0,1,8.19,1,18,18,0,0,1,7.32,4.72,24.63,24.63,0,0,1,1.8,2.22,11.45,11.45,0,0,1,1.35,2.55,8.13,8.13,0,0,1,2-4.28,15.15,15.15,0,0,1,4-3.26,21.29,21.29,0,0,1,5-2.11,23,23,0,0,1,5.32-.87,20.76,20.76,0,0,1,8.3,1,19.8,19.8,0,0,1,7.54,4.72q4.89,5.1,4.89,14.65V250.9H346.63v-5c0-2.1,0-4.39-.05-6.89s-.06-5.08-.06-7.76,0-5.21-.11-7.6-.16-4.52-.27-6.4-.23-3.25-.38-4.12c-.79-4.71-3.43-7.16-7.92-7.38a8.79,8.79,0,0,0-6.35,2.17,6.82,6.82,0,0,0-2.44,5.53,5.83,5.83,0,0,1-1.95-1.14,9.82,9.82,0,0,1-1.74-1.89,13.8,13.8,0,0,1,.11,1.68V250.9H311.58c0-1.23,0-2.89.05-5s.06-4.39.06-6.89v-7.76q0-4-.11-7.6c-.07-2.38-.18-4.52-.33-6.4a26.5,26.5,0,0,0-.54-4.12,8.76,8.76,0,0,0-3.26-5.21,8.63,8.63,0,0,0-5.2-1.74,8,8,0,0,0-5.86,2,7,7,0,0,0-2.07,5.26,6.62,6.62,0,0,1-2.6-1.79,8.18,8.18,0,0,1-1.85-2.87v42.1h-14.1V194.8h14.1Z" transform="translate(-11 -147.39)"/><path class="cls-2" d="M385.59,200.87a25.43,25.43,0,0,1,8.84-5.86,24.09,24.09,0,0,1,9.72-1.62,25.29,25.29,0,0,1,9.44,2.28,24.41,24.41,0,0,1,8,5.86,29.65,29.65,0,0,1,5.59,9.17,32.78,32.78,0,0,1,2.11,12.1A30.45,30.45,0,0,1,427,234.73a29.85,29.85,0,0,1-6.07,9.34,27,27,0,0,1-8.74,6,23.1,23.1,0,0,1-10.15,1.9,16.47,16.47,0,0,1-8.57-2.33,13.23,13.23,0,0,1-4.56-4.89,12.27,12.27,0,0,1-1.41-5.64,9.36,9.36,0,0,1,1-4.61,9.83,9.83,0,0,0,2.33,2.22,10.71,10.71,0,0,0,2.93,1.41,19.49,19.49,0,0,0,3.26.71,25.88,25.88,0,0,0,3.2.21,13.81,13.81,0,0,0,8.35-2.44,15.38,15.38,0,0,0,5.05-6.07,18.7,18.7,0,0,0,1.68-7.93,19.12,19.12,0,0,0-1.63-7.92,14.93,14.93,0,0,0-5-6.08,14.07,14.07,0,0,0-8.46-2.44,12,12,0,0,0-7.05,2,14.31,14.31,0,0,0-4.51,5,23.21,23.21,0,0,0-2.39,6.89,41.65,41.65,0,0,0-.7,7.6v44.38h-14v-66a10.58,10.58,0,0,1,1.14-5,10.72,10.72,0,0,1,3.09-3.63,12.55,12.55,0,0,1,4.45-2.12,18.47,18.47,0,0,1,5.32-.54v6.07Zm94.3,43.85a26.34,26.34,0,0,1-8.95,5.86,24.66,24.66,0,0,1-9.71,1.68,25.08,25.08,0,0,1-9.5-2.23,24.45,24.45,0,0,1-8.14-5.91A29.53,29.53,0,0,1,438,234.9a33.11,33.11,0,0,1-2.12-12.21,31.34,31.34,0,0,1,2.28-12.05,29.18,29.18,0,0,1,6.13-9.44,27.51,27.51,0,0,1,8.79-6,23.27,23.27,0,0,1,10.26-1.9,15.9,15.9,0,0,1,8.35,2.33,13.57,13.57,0,0,1,4.62,4.94,12.93,12.93,0,0,1,1.52,5.7,9,9,0,0,1-.93,4.61,9,9,0,0,0-5.21-3.73,24,24,0,0,0-6.51-.94,13.89,13.89,0,0,0-8.35,2.44,15.86,15.86,0,0,0-5.1,6.17,19,19,0,0,0-1.79,8,18.47,18.47,0,0,0,1.62,8,15.38,15.38,0,0,0,5.11,6.17,14.22,14.22,0,0,0,8.51,2.44,12.33,12.33,0,0,0,7.17-2,14.5,14.5,0,0,0,4.5-5,23.23,23.23,0,0,0,2.39-6.94,42.47,42.47,0,0,0,.7-7.66V194.69H494V250.9H479.89Z" transform="translate(-11 -147.39)"/><path class="cls-1" d="M217.88,288.31h3.51l2.93,8.22,2.37-6.18a3.63,3.63,0,0,1,.57-1.08,2.49,2.49,0,0,1,.69-.62,2.33,2.33,0,0,1,.81-.3,4.29,4.29,0,0,1,.88,0l3.06,8.11,2.2-6.16a3.56,3.56,0,0,1,.8-1.31,3,3,0,0,1,1.06-.68,3,3,0,0,1,1.18-.18,4.46,4.46,0,0,1,1.2.22l-5.21,14.43h-2.31l-3.1-8.22-3.17,8.22h-2.29l-5.18-14.43Zm22.93,0h3.51l2.92,8.22,2.37-6.18a4.16,4.16,0,0,1,.57-1.08,2.67,2.67,0,0,1,.7-.62,2.33,2.33,0,0,1,.81-.3,4.29,4.29,0,0,1,.88,0l3.06,8.11,2.2-6.16a3.55,3.55,0,0,1,.79-1.31,3.14,3.14,0,0,1,1.06-.68,3,3,0,0,1,1.19-.18,4.39,4.39,0,0,1,1.19.22l-5.2,14.43h-2.32l-3.09-8.22-3.17,8.22H246l-5.18-14.43Zm22.93,0h3.51l2.92,8.22,2.37-6.18a4.16,4.16,0,0,1,.57-1.08,2.52,2.52,0,0,1,.7-.62,2.33,2.33,0,0,1,.81-.3,4.2,4.2,0,0,1,.87,0l3.07,8.11,2.2-6.16a3.55,3.55,0,0,1,.79-1.31,3.14,3.14,0,0,1,1.06-.68,3,3,0,0,1,1.18-.18,4.46,4.46,0,0,1,1.2.22l-5.21,14.43h-2.31l-3.09-8.22-3.18,8.22h-2.28l-5.18-14.43Zm26.35,10.84a2.06,2.06,0,0,1,0,4.12,2.06,2.06,0,0,1,0-4.12Zm9.56-9.28a6.38,6.38,0,0,1,2.27-1.5,6,6,0,0,1,2.49-.42,6.42,6.42,0,0,1,2.42.59,6.17,6.17,0,0,1,2.06,1.5,7.38,7.38,0,0,1,1.44,2.35,8.49,8.49,0,0,1,.54,3.11,7.8,7.8,0,0,1-.58,3.06,7.66,7.66,0,0,1-1.56,2.4,7,7,0,0,1-2.24,1.55,5.93,5.93,0,0,1-2.61.48,4.07,4.07,0,0,1-2.2-.6,3.37,3.37,0,0,1-1.17-1.25,3.17,3.17,0,0,1-.36-1.45,2.38,2.38,0,0,1,.25-1.18,2.71,2.71,0,0,0,.6.57,2.6,2.6,0,0,0,.75.36,4,4,0,0,0,.83.18,6.12,6.12,0,0,0,.83.06,3.52,3.52,0,0,0,2.14-.63,4,4,0,0,0,1.3-1.56,5.08,5.08,0,0,0,0-4.07,3.85,3.85,0,0,0-1.28-1.56,3.66,3.66,0,0,0-2.17-.62,3.12,3.12,0,0,0-1.81.5,3.6,3.6,0,0,0-1.16,1.29,5.88,5.88,0,0,0-.61,1.77,10.72,10.72,0,0,0-.18,1.95v11.4h-3.6V291.21a2.77,2.77,0,0,1,.29-1.28,2.89,2.89,0,0,1,.8-.94,3.16,3.16,0,0,1,1.14-.54,4.69,4.69,0,0,1,1.37-.14v1.56Zm17.1-1.56v6.91c0,.34,0,.69,0,1.07a6.86,6.86,0,0,0,.12,1.12,3.59,3.59,0,0,0,.33,1,2.16,2.16,0,0,0,.71.8,2.23,2.23,0,0,0,.71.34,3.24,3.24,0,0,0,.82.11,3.1,3.1,0,0,0,.81-.11,2.85,2.85,0,0,0,.73-.34,2.06,2.06,0,0,0,.71-.76,3.72,3.72,0,0,0,.33-1,5.67,5.67,0,0,0,.1-1.09v-5.21a2.53,2.53,0,0,1,1-2.24,4.06,4.06,0,0,1,2.62-.68v6.13a24.4,24.4,0,0,1-.12,3.16,8.15,8.15,0,0,1-.46,2,5.31,5.31,0,0,1-2.29,2.67,7,7,0,0,1-3.45.81,6.79,6.79,0,0,1-3.68-.95,5.26,5.26,0,0,1-2.2-3,10.09,10.09,0,0,1-.31-1.74c-.07-.74-.11-1.54-.11-2.41v-6.58ZM332.16,290a2.18,2.18,0,0,1,.67-.87,4.15,4.15,0,0,1,1-.6,7.58,7.58,0,0,1,1.14-.37,5.69,5.69,0,0,1,1.09-.17,5.24,5.24,0,0,1,2.1.26,4.7,4.7,0,0,1,1.88,1.22,5,5,0,0,1,.46.57,3.09,3.09,0,0,1,.35.65,2.05,2.05,0,0,1,.5-1.1,4,4,0,0,1,1-.83,5.28,5.28,0,0,1,1.29-.55A6.1,6.1,0,0,1,345,288a5.34,5.34,0,0,1,2.13.26,4.68,4.68,0,0,1,3.19,5v9.53h-3.62v-1.29c0-.54,0-1.12,0-1.77s0-1.3,0-2,0-1.33,0-1.95,0-1.16-.07-1.64a10.64,10.64,0,0,0-.1-1.06,2,2,0,0,0-2-1.89,2.25,2.25,0,0,0-1.63.55,1.75,1.75,0,0,0-.63,1.42,1.54,1.54,0,0,1-.5-.29,2.3,2.3,0,0,1-.44-.49c0,.15,0,.3,0,.44v10h-3.56c0-.32,0-.75,0-1.29s0-1.12,0-1.77v-2q0-1,0-1.95c0-.61-.05-1.16-.09-1.64a5.8,5.8,0,0,0-.14-1.06,2.23,2.23,0,0,0-.83-1.34,2.29,2.29,0,0,0-1.34-.44,2.07,2.07,0,0,0-1.5.51,1.79,1.79,0,0,0-.53,1.35,1.59,1.59,0,0,1-.67-.46,2,2,0,0,1-.47-.73v10.81h-3.63V288.31h3.63V290Zm24.57-.09a6.38,6.38,0,0,1,2.27-1.5,6,6,0,0,1,2.49-.42,6.42,6.42,0,0,1,2.42.59A6.31,6.31,0,0,1,366,290a7.55,7.55,0,0,1,1.43,2.35,8.49,8.49,0,0,1,.54,3.11,7.8,7.8,0,0,1-.58,3.06,7.66,7.66,0,0,1-1.56,2.4,7,7,0,0,1-2.24,1.55A5.93,5.93,0,0,1,361,303a4.07,4.07,0,0,1-2.2-.6,3.37,3.37,0,0,1-1.17-1.25,3.17,3.17,0,0,1-.36-1.45,2.38,2.38,0,0,1,.25-1.18,2.71,2.71,0,0,0,.6.57,2.6,2.6,0,0,0,.75.36,3.93,3.93,0,0,0,.84.18,5.87,5.87,0,0,0,.82.06,3.52,3.52,0,0,0,2.14-.63,4,4,0,0,0,1.3-1.56,4.74,4.74,0,0,0,.43-2,4.93,4.93,0,0,0-.42-2,3.85,3.85,0,0,0-1.28-1.56,3.66,3.66,0,0,0-2.17-.62,3.12,3.12,0,0,0-1.81.5,3.6,3.6,0,0,0-1.16,1.29,5.88,5.88,0,0,0-.61,1.77,10.72,10.72,0,0,0-.18,1.95v11.4h-3.6V291.21a2.66,2.66,0,0,1,.3-1.28,2.86,2.86,0,0,1,.79-.94,3.16,3.16,0,0,1,1.14-.54,4.69,4.69,0,0,1,1.37-.14v1.56Zm24.21,11.26a6.86,6.86,0,0,1-2.3,1.5,6.25,6.25,0,0,1-2.5.43,6.42,6.42,0,0,1-4.52-2.09,7.39,7.39,0,0,1-1.45-2.36,8.58,8.58,0,0,1-.54-3.14,8.06,8.06,0,0,1,.58-3.09,7.28,7.28,0,0,1,1.57-2.42,7.07,7.07,0,0,1,2.26-1.55,6,6,0,0,1,2.63-.49,4.18,4.18,0,0,1,2.15.6,3.45,3.45,0,0,1,1.18,1.27,3.29,3.29,0,0,1,.39,1.46,2.43,2.43,0,0,1-.23,1.19,2.31,2.31,0,0,0-1.34-1,6.24,6.24,0,0,0-1.67-.24,3.62,3.62,0,0,0-2.15.62,4.2,4.2,0,0,0-1.31,1.59,5,5,0,0,0-.46,2.05,4.71,4.71,0,0,0,.42,2.05,3.93,3.93,0,0,0,1.31,1.58,3.64,3.64,0,0,0,2.19.63,3.22,3.22,0,0,0,1.84-.5,3.76,3.76,0,0,0,1.15-1.29,5.91,5.91,0,0,0,.61-1.79,10.09,10.09,0,0,0,.19-2v-5.94h3.62v14.44h-3.62v-1.59Zm9.27-2a2.06,2.06,0,0,1,0,4.12,2,2,0,0,1-1.45-.61,2.1,2.1,0,0,1,0-2.9,2,2,0,0,1,1.45-.61Zm5.13-10.84H399l3.62,8.5,2.73-6.3a5.47,5.47,0,0,1,.7-1.13,3.58,3.58,0,0,1,1-.84,3.29,3.29,0,0,1,1.29-.44,5.07,5.07,0,0,1,1.66.1l-6.21,14.52h-2.32l-6.15-14.41Zm20.5,1.65a2.29,2.29,0,0,1,.68-.87,5.2,5.2,0,0,1,1-.61,5.9,5.9,0,0,1,1.14-.39,6.77,6.77,0,0,1,1.09-.17,5.54,5.54,0,0,1,2.09.29,4.87,4.87,0,0,1,1.89,1.22,5.19,5.19,0,0,1,1.26,3.76v9.53h-3.57c0-.32,0-.75,0-1.29s0-1.12,0-1.77v-2q0-1,0-1.95c0-.61-.05-1.16-.08-1.64a8.4,8.4,0,0,0-.14-1.06,2.26,2.26,0,0,0-.85-1.34,2.34,2.34,0,0,0-1.35-.44,2,2,0,0,0-1.48.51,1.83,1.83,0,0,0-.53,1.35,1.65,1.65,0,0,1-.67-.46,2.44,2.44,0,0,1-.5-.73v10.81h-3.59V288.28h3.59Z" transform="translate(-11 -147.39)"/></svg>